<svg version="1.2" xmlns="http://www.w3.org/2000/svg" viewBox="0 0 1980 1979" width="120" height="120">
	<title>2-svg-svg</title>
	<style>
		.s0 { fill: #cd4848 } 
	</style>
	<g id="Layer 1">
		<path fill-rule="evenodd" class="s0" d="m742.8 723.1l-18.8 18.8c-1.3 0.3-2 1.3-2.8 2-22.4 20.6-47 38-74.3 51.5-100.4 49.4-201.9 50.9-303.8 5-27-12.2-51.6-28.5-74.2-47.7-3.6-3.1-6.8-6.7-10.9-9.2l-21.4-21.3q-0.3-0.4-0.5-0.8-0.4-0.5-0.7-0.9-0.3-0.4-0.6-0.8-0.3-0.4-0.6-0.8-6.4-7-12.4-14.4-5.9-7.4-11.4-15.1-5.5-7.7-10.6-15.8-5-8-9.6-16.3-56.5-103.1-39.2-219.5c8.8-58 31.5-110.3 67.2-157q5.5-7.2 11.4-14.2 6-6.9 12.2-13.5 6.3-6.6 13-12.8 6.6-6.3 13.5-12.2c20.3-17.1 41.9-32 65.6-43.8q138.3-68.6 282.8-14c34.9 13.2 66.4 32.5 94.9 56.6 3.8 3.1 7 6.8 11.2 9.4l20.9 20.8c0.9 1.2 1.7 2.4 2.7 3.5q6.4 7.1 12.3 14.5 6 7.3 11.5 15 5.5 7.8 10.5 15.8 5.1 8 9.7 16.3 52.8 95.7 41.3 204.5-11.2 104.4-79.2 184.9c-3.2 3.9-7.1 7.1-9.7 11.5zm-391.6-62.7l-47.6 47.7c-3.6 3.6-3.6 3.6 0.5 6.9q3.3 2.8 6.7 5.4 3.5 2.7 7 5.1 3.5 2.6 7 5.1 3.6 2.5 7.2 4.8 90 57.3 195.9 43.9c57.7-7.3 108.5-30.2 152.7-68.1 25.8-22.1 47.6-47.6 63.8-77.5 47.5-87.5 50.7-177.1 10.4-268.1-10.3-23-24.2-43.8-40.2-63.2-1.6-1.8-2.6-3.4-5.3-0.8q-48.4 48.8-97.2 97.3c-1.7 1.8-1.7 2.9-0.4 4.8 1.9 2.6 3.8 5.2 5.5 8 41.7 68.5 22.6 156.4-43.9 201.5-50.7 34.5-118.6 33.9-168.6-1.7-2-1.4-3.4-1.5-5.3 0.4-16 16.3-32.1 32.4-48.2 48.5zm66.4-97.6c40 40 105.6 39.9 145.6-0.2 40-40.1 40.1-105.6 0-145.6-40-40-105.5-39.9-145.6 0.2-40.1 40.2-40.1 105.7 0 145.6z"/>
	</g>
</svg>